<svg width="20" height="26" viewBox="0 0 20 26" fill="none" xmlns="http://www.w3.org/2000/svg">
<path d="M18.9062 20H18.2031V10.7031C18.2031 6.84492 15.1475 3.65664 11.1719 3.12617V2.0625C11.1719 1.4582 10.6475 0.96875 10 0.96875C9.35254 0.96875 8.82812 1.4582 8.82812 2.0625V3.12617C4.85254 3.65664 1.79688 6.84492 1.79688 10.7031V20H1.09375C0.575195 20 0.15625 20.391 0.15625 20.875V21.75C0.15625 21.8703 0.261719 21.9688 0.390625 21.9688H6.71875C6.71875 23.6586 8.18945 25.0312 10 25.0312C11.8105 25.0312 13.2812 23.6586 13.2812 21.9688H19.6094C19.7383 21.9688 19.8438 21.8703 19.8438 21.75V20.875C19.8438 20.391 19.4248 20 18.9062 20ZM10 23.2812C9.22363 23.2812 8.59375 22.6934 8.59375 21.9688H11.4062C11.4062 22.6934 10.7764 23.2812 10 23.2812ZM3.90625 20V10.7031C3.90625 9.18281 4.53906 7.75547 5.69043 6.68086C6.8418 5.60625 8.37109 5.01562 10 5.01562C11.6289 5.01562 13.1582 5.60625 14.3096 6.68086C15.4609 7.75547 16.0938 9.18281 16.0938 10.7031V20H3.90625Z" fill="#A7A7A7"/>
</svg>
