<svg width="166" height="166" viewBox="0 0 166 166" fill="none" xmlns="http://www.w3.org/2000/svg">
<g clip-path="url(#clip0_41_437)">
<rect x="81.7006" y="42.7206" width="2.59867" height="51.2647" rx="1.29934" fill="url(#paint0_linear_41_437)"/>
<rect x="89.4968" y="51.9219" width="2.59867" height="32.862" rx="1.29934" fill="url(#paint1_linear_41_437)"/>
<rect x="73.9047" y="58.4944" width="2.59868" height="19.7172" rx="1.29934" fill="url(#paint2_linear_41_437)"/>
<rect x="97.2926" y="62.4377" width="2.59867" height="10.5158" rx="1.29934" fill="url(#paint3_linear_41_437)"/>
<rect x="105.089" y="55.2081" width="2.59867" height="24.9751" rx="1.29934" fill="url(#paint4_linear_41_437)"/>
<rect x="112.885" y="61.1233" width="2.59868" height="13.1448" rx="1.29934" fill="url(#paint5_linear_41_437)"/>
<rect x="66.1085" y="55.2081" width="2.59866" height="26.2896" rx="1.29933" fill="url(#paint6_linear_41_437)"/>
<rect x="58.3126" y="62.4377" width="2.59867" height="11.8303" rx="1.29934" fill="url(#paint7_linear_41_437)"/>
<rect x="50.5165" y="59.8088" width="2.59867" height="17.0882" rx="1.29934" fill="url(#paint8_linear_41_437)"/>
<rect x="42.7206" y="63.7522" width="2.59867" height="9.20136" rx="1.29934" fill="url(#paint9_linear_41_437)"/>
<rect x="120.681" y="63.7522" width="2.59868" height="9.20136" rx="1.29934" fill="url(#paint10_linear_41_437)"/>
<path d="M83 16.8306C111.369 16.8306 130.642 26.0679 140.284 44.2857C140.913 45.475 142.388 45.9289 143.578 45.2996C144.767 44.6699 145.221 43.1957 144.591 42.0062C134.038 22.0677 113.316 11.9579 83 11.9579C56.3891 11.9579 37.0861 19.8092 25.6269 35.2935C16.9181 47.0611 12.8595 63.4912 13.8892 82.8081C14.6599 97.2654 17.9384 108.131 18.0775 108.586C18.0901 108.627 18.1038 108.668 18.1187 108.709L21.5509 118.12C21.5518 118.122 21.5525 118.124 21.5531 118.127L36.8624 160.105L36.8663 160.116L37.1198 160.811C30.2756 159.594 24.5178 154.94 21.9244 148.271L16.7544 134.977C14.8437 130.063 14.3072 124.72 15.2027 119.525C15.272 119.122 15.239 118.708 15.1067 118.321C15.059 118.183 10.3381 104.239 8.72023 86.2928C7.77416 75.7946 8.06693 66.0301 9.59108 57.2704C11.4758 46.436 15.2604 37.125 20.8398 29.5967C21.6413 28.5154 21.4144 26.99 20.3331 26.1885C19.2512 25.387 17.7254 25.6143 16.9249 26.6953C10.8954 34.8305 6.81512 44.8239 4.79686 56.3976C3.19781 65.5678 2.88267 75.7505 3.86116 86.6621C5.35257 103.296 9.35634 116.39 10.3008 119.308C9.39817 125.182 10.056 131.197 12.2124 136.743L17.3824 150.037C19.2184 154.759 22.3997 158.766 26.5811 161.627C30.7622 164.487 35.6502 165.999 40.7167 165.999C42.3566 166.045 43.6107 164.253 43.0057 162.728L42.8747 162.369L56.3243 164.537C56.7325 164.606 57.1562 164.557 57.5466 164.421L67.1172 160.93C70.1662 159.819 72.5994 157.586 73.9689 154.644C75.3384 151.702 75.4801 148.403 74.3684 145.354L65.9257 122.205C65.465 120.94 64.0663 120.288 62.8022 120.75C61.5381 121.212 60.887 122.61 61.3481 123.874L69.7907 147.024C70.4567 148.85 70.3717 150.826 69.5514 152.587C68.7312 154.349 67.2741 155.686 65.4481 156.352L58.1662 159.008L38.5613 105.252L45.8433 102.596C49.6133 101.223 53.7977 103.17 55.172 106.939L57.9976 114.687C59.2189 117.689 63.5764 116.07 62.5752 113.017L59.7497 105.269C57.4545 98.9763 50.4673 95.7227 44.1739 98.0185L34.6315 101.499C34.2317 101.641 33.8708 101.888 33.5923 102.207L24.6964 112.524L22.7206 107.106C22.4665 106.248 19.4457 95.796 18.7483 82.4252C18.0889 69.7852 19.4282 51.8485 29.5548 38.1765C40.0466 24.0127 58.0281 16.8306 83 16.8306ZM34.5715 108.534L53.0004 159.066L40.9625 157.126L26.6093 117.768L34.5715 108.534Z" fill="url(#paint11_linear_41_437)"/>
<path d="M161.33 57.1432C159.422 45.6383 155.498 35.6689 149.668 27.5113C136.623 9.25612 114.193 0 83.0019 0H82.998C57.1046 0 37.1519 6.41921 23.6949 19.0793C21.4208 21.3725 24.6114 24.7564 27.0333 22.6282C39.5569 10.8464 58.386 4.87268 83.0016 4.87268C112.522 4.87268 133.615 13.4382 145.694 30.3313C157.964 47.489 158.749 70.4229 157.247 86.641C155.604 104.383 150.939 118.185 150.892 118.322C150.76 118.709 150.727 119.122 150.797 119.524C151.692 124.719 151.156 130.063 149.245 134.977L144.075 148.271C141.482 154.94 135.724 159.593 128.88 160.811L129.133 160.115C129.134 160.112 129.136 160.108 129.137 160.105L144.446 118.126C144.447 118.124 144.448 118.122 144.449 118.12L147.881 108.709C147.896 108.668 147.909 108.627 147.922 108.586C148.3 107.348 157.087 77.9756 148.635 51.6704C148.223 50.3894 146.849 49.6843 145.57 50.096C144.289 50.5078 143.584 51.8799 143.996 53.1609C151.806 77.4666 143.702 105.669 143.278 107.106L141.303 112.524L132.407 102.206C132.128 101.887 131.766 101.64 131.365 101.497L121.825 98.0178C118.777 96.9057 115.477 97.0481 112.536 98.4173C109.594 99.7871 107.361 102.22 106.25 105.269L91.631 145.353C90.5189 148.402 90.6609 151.701 92.0305 154.643C93.4 157.585 95.8332 159.817 98.8822 160.929L108.453 164.419C108.843 164.556 109.267 164.605 109.675 164.536L123.125 162.368L122.994 162.727C122.388 164.252 123.643 166.044 125.283 165.998C130.349 165.998 135.237 164.486 139.418 161.626C143.6 158.765 146.781 154.758 148.617 150.036L153.787 136.742C155.943 131.196 156.601 125.181 155.699 119.307C156.634 116.421 160.564 103.588 162.093 87.1526C163.098 76.3542 162.841 66.257 161.33 57.1432ZM96.4483 152.587C95.6283 150.826 95.543 148.849 96.209 147.024L110.828 106.939C111.494 105.113 112.831 103.656 114.593 102.836C116.355 102.016 118.33 101.931 120.156 102.596L127.438 105.252L107.834 159.008L100.552 156.353C98.7259 155.686 97.2689 154.349 96.4483 152.587ZM113 159.066L131.429 108.534L139.391 117.768L125.038 157.125L113 159.066Z" fill="url(#paint12_linear_41_437)"/>
</g>
<defs>
<linearGradient id="paint0_linear_41_437" x1="82.9999" y1="42.7206" x2="82.9999" y2="93.9853" gradientUnits="userSpaceOnUse">
<stop stop-color="#22DDF2"/>
<stop offset="1" stop-color="#D91193"/>
</linearGradient>
<linearGradient id="paint1_linear_41_437" x1="90.7962" y1="51.9219" x2="90.7962" y2="84.7839" gradientUnits="userSpaceOnUse">
<stop stop-color="#22DDF2"/>
<stop offset="1" stop-color="#D91193"/>
</linearGradient>
<linearGradient id="paint2_linear_41_437" x1="75.204" y1="58.4944" x2="75.204" y2="78.2116" gradientUnits="userSpaceOnUse">
<stop stop-color="#22DDF2"/>
<stop offset="1" stop-color="#D91193"/>
</linearGradient>
<linearGradient id="paint3_linear_41_437" x1="98.5919" y1="62.4377" x2="98.5919" y2="72.9536" gradientUnits="userSpaceOnUse">
<stop stop-color="#22DDF2"/>
<stop offset="1" stop-color="#D91193"/>
</linearGradient>
<linearGradient id="paint4_linear_41_437" x1="106.388" y1="55.2081" x2="106.388" y2="80.1832" gradientUnits="userSpaceOnUse">
<stop stop-color="#22DDF2"/>
<stop offset="1" stop-color="#D91193"/>
</linearGradient>
<linearGradient id="paint5_linear_41_437" x1="114.184" y1="61.1233" x2="114.184" y2="74.2681" gradientUnits="userSpaceOnUse">
<stop stop-color="#22DDF2"/>
<stop offset="1" stop-color="#D91193"/>
</linearGradient>
<linearGradient id="paint6_linear_41_437" x1="67.4079" y1="55.2081" x2="67.4079" y2="81.4977" gradientUnits="userSpaceOnUse">
<stop stop-color="#22DDF2"/>
<stop offset="1" stop-color="#D91193"/>
</linearGradient>
<linearGradient id="paint7_linear_41_437" x1="59.612" y1="62.4377" x2="59.612" y2="74.2681" gradientUnits="userSpaceOnUse">
<stop stop-color="#22DDF2"/>
<stop offset="1" stop-color="#D91193"/>
</linearGradient>
<linearGradient id="paint8_linear_41_437" x1="51.8158" y1="59.8088" x2="51.8158" y2="76.8971" gradientUnits="userSpaceOnUse">
<stop stop-color="#22DDF2"/>
<stop offset="1" stop-color="#D91193"/>
</linearGradient>
<linearGradient id="paint9_linear_41_437" x1="44.0199" y1="63.7522" x2="44.0199" y2="72.9536" gradientUnits="userSpaceOnUse">
<stop stop-color="#22DDF2"/>
<stop offset="1" stop-color="#D91193"/>
</linearGradient>
<linearGradient id="paint10_linear_41_437" x1="121.98" y1="63.7522" x2="121.98" y2="72.9536" gradientUnits="userSpaceOnUse">
<stop stop-color="#22DDF2"/>
<stop offset="1" stop-color="#D91193"/>
</linearGradient>
<linearGradient id="paint11_linear_41_437" x1="74.0902" y1="11.9579" x2="74.0902" y2="166" gradientUnits="userSpaceOnUse">
<stop stop-color="#22DDF2"/>
<stop offset="1" stop-color="#D91193"/>
</linearGradient>
<linearGradient id="paint12_linear_41_437" x1="92.8048" y1="0" x2="92.8048" y2="165.999" gradientUnits="userSpaceOnUse">
<stop stop-color="#22DDF2"/>
<stop offset="1" stop-color="#D91193"/>
</linearGradient>
<clipPath id="clip0_41_437">
<rect width="166" height="166" fill="white"/>
</clipPath>
</defs>
</svg>
