<svg width="30" height="30" viewBox="0 0 30 30" fill="none" xmlns="http://www.w3.org/2000/svg">
<path fill-rule="evenodd" clip-rule="evenodd" d="M15.0003 6.58402C17.2003 4.00902 21.2753 2.95902 24.5753 5.20902C26.3253 6.40902 27.4253 8.43402 27.5003 10.559C27.6628 15.409 23.3753 19.2965 16.8128 25.2465L16.6753 25.3715C15.7253 26.2465 14.2628 26.2465 13.3128 25.384L13.1878 25.2715L13.1123 25.2029C6.59231 19.2792 2.32594 15.4029 2.50027 10.5715C2.57527 8.43402 3.67527 6.40902 5.42527 5.20902C8.72527 2.94652 12.8003 4.00902 15.0003 6.58402ZM15.0003 23.534L15.1253 23.409C21.0753 18.0215 25.0003 14.459 25.0003 10.8465C25.0003 8.34652 23.1253 6.47152 20.6253 6.47152C18.7003 6.47152 16.8253 7.70902 16.1753 9.42152H13.8378C13.1753 7.70902 11.3003 6.47152 9.37527 6.47152C6.87527 6.47152 5.00027 8.34652 5.00027 10.8465C5.00027 14.459 8.92527 18.0215 14.8753 23.409L15.0003 23.534Z" fill="#ED1BA3"/>
</svg>
