<svg width="20" height="20" viewBox="0 0 20 20" fill="none" xmlns="http://www.w3.org/2000/svg">
<path fill-rule="evenodd" clip-rule="evenodd" d="M4.99992 8.33325C4.08325 8.33325 3.33325 9.08325 3.33325 9.99992C3.33325 10.9166 4.08325 11.6666 4.99992 11.6666C5.91659 11.6666 6.66659 10.9166 6.66659 9.99992C6.66659 9.08325 5.91659 8.33325 4.99992 8.33325ZM14.9999 8.33325C14.0833 8.33325 13.3333 9.08325 13.3333 9.99992C13.3333 10.9166 14.0833 11.6666 14.9999 11.6666C15.9166 11.6666 16.6666 10.9166 16.6666 9.99992C16.6666 9.08325 15.9166 8.33325 14.9999 8.33325ZM8.33325 9.99992C8.33325 9.08325 9.08325 8.33325 9.99992 8.33325C10.9166 8.33325 11.6666 9.08325 11.6666 9.99992C11.6666 10.9166 10.9166 11.6666 9.99992 11.6666C9.08325 11.6666 8.33325 10.9166 8.33325 9.99992Z" fill="white"/>
</svg>
