<svg width="42" height="42" viewBox="0 0 42 42" fill="none" xmlns="http://www.w3.org/2000/svg">
<rect width="42" height="42" rx="20" fill="#361E60"/>
<path fill-rule="evenodd" clip-rule="evenodd" d="M27.9154 12.0189C28.1095 11.9711 28.3156 12.015 28.473 12.1386C28.6307 12.2623 28.7228 12.4513 28.7228 12.6517V23.2652L28.7228 23.2711C28.7228 24.6959 27.3883 25.8551 25.7476 25.8551C24.1069 25.8551 22.7724 24.6959 22.7724 23.2711C22.7724 21.8463 24.1069 20.6868 25.7476 20.6868C26.3671 20.6868 26.943 20.8521 27.4198 21.1346V17.762L18.9503 19.8504V27.4342C18.9504 27.4363 18.9504 27.4384 18.9504 27.4405C18.9504 28.8653 17.6156 30.0249 15.9752 30.0249C14.3347 30.0249 13 28.8655 13 27.4407C13 26.0159 14.3347 24.8564 15.9752 24.8564C16.5946 24.8564 17.1705 25.0217 17.6474 25.3042V15.062C17.6474 14.7624 17.8517 14.5013 18.1429 14.4294L27.9154 12.0189ZM17.6474 27.4366C17.6446 26.7319 16.8953 26.1594 15.9752 26.1594C15.0531 26.1594 14.303 26.734 14.303 27.4405C14.303 28.1471 15.0531 28.7217 15.9752 28.7217C16.8973 28.7217 17.6474 28.1471 17.6474 27.4405C17.6474 27.4405 17.6474 27.4404 17.6474 27.4404H17.6474V27.4366ZM27.4198 13.4834V16.4201L18.9503 18.5084V15.5726L27.4198 13.4834ZM27.4198 23.2672C27.417 22.5624 26.668 21.9899 25.7476 21.9899C24.8255 21.9899 24.0754 22.5645 24.0754 23.2711C24.0754 23.9776 24.8255 24.5522 25.7476 24.5522C26.6697 24.5522 27.4198 23.9775 27.4198 23.2711V23.2711H27.4198V23.2672Z" fill="url(#paint0_linear_146_152)"/>
<path d="M28.473 12.1386L28.6274 11.9419L28.6274 11.9419L28.473 12.1386ZM27.9154 12.0189L27.8556 11.7761L27.8555 11.7762L27.9154 12.0189ZM28.7228 23.2652H28.4728V23.2655L28.7228 23.2652ZM28.7228 23.2711H28.9728V23.2708L28.7228 23.2711ZM27.4198 21.1346L27.2924 21.3497L27.6698 21.5733V21.1346H27.4198ZM27.4198 17.762H27.6698V17.4429L27.3599 17.5193L27.4198 17.762ZM18.9503 19.8504L18.8905 19.6077L18.7003 19.6545V19.8504H18.9503ZM18.9503 27.4342H18.7003L18.7003 27.4349L18.9503 27.4342ZM17.6474 25.3042L17.5199 25.5193L17.8974 25.7428V25.3042H17.6474ZM18.1429 14.4294L18.0831 14.1867L18.083 14.1867L18.1429 14.4294ZM17.6474 27.4366H17.8974L17.8974 27.4356L17.6474 27.4366ZM17.6474 27.4404H17.8974V27.1904H17.6474V27.4404ZM17.6474 27.4404H17.3974V27.6904H17.6474V27.4404ZM27.4198 16.4201L27.4796 16.6628L27.6698 16.6159V16.4201H27.4198ZM27.4198 13.4834H27.6698V13.1643L27.3599 13.2407L27.4198 13.4834ZM18.9503 18.5084H18.7003V18.8276L19.0102 18.7512L18.9503 18.5084ZM18.9503 15.5726L18.8905 15.3299L18.7003 15.3768V15.5726H18.9503ZM27.4198 23.2672H27.6698L27.6698 23.2662L27.4198 23.2672ZM27.4198 23.2711H27.6698V23.0211H27.4198V23.2711ZM27.4198 23.2711H27.1698V23.5211H27.4198V23.2711ZM28.6274 11.9419C28.4091 11.7706 28.124 11.7101 27.8556 11.7761L27.9751 12.2617C28.095 12.2321 28.2221 12.2594 28.3187 12.3352L28.6274 11.9419ZM28.9728 12.6517C28.9728 12.3744 28.8453 12.113 28.6274 11.9419L28.3187 12.3352C28.4161 12.4117 28.4728 12.5282 28.4728 12.6517H28.9728ZM28.9728 23.2652V12.6517H28.4728V23.2652H28.9728ZM28.9728 23.2708L28.9728 23.2649L28.4728 23.2655L28.4728 23.2714L28.9728 23.2708ZM25.7476 26.1051C27.4921 26.1051 28.9728 24.8659 28.9728 23.2711H28.4728C28.4728 24.5259 27.2845 25.6051 25.7476 25.6051V26.1051ZM22.5224 23.2711C22.5224 24.8659 24.0031 26.1051 25.7476 26.1051V25.6051C24.2107 25.6051 23.0224 24.5259 23.0224 23.2711H22.5224ZM25.7476 20.4368C24.0031 20.4368 22.5224 21.6763 22.5224 23.2711H23.0224C23.0224 22.0162 24.2108 20.9368 25.7476 20.9368V20.4368ZM27.5472 20.9195C27.0315 20.614 26.4116 20.4368 25.7476 20.4368V20.9368C26.3227 20.9368 26.8545 21.0903 27.2924 21.3497L27.5472 20.9195ZM27.1698 17.762V21.1346H27.6698V17.762H27.1698ZM19.0102 20.0931L27.4796 18.0048L27.3599 17.5193L18.8905 19.6077L19.0102 20.0931ZM19.2003 27.4342V19.8504H18.7003V27.4342H19.2003ZM19.2004 27.4405C19.2004 27.4382 19.2004 27.4358 19.2003 27.4335L18.7003 27.4349C18.7004 27.4368 18.7004 27.4386 18.7004 27.4405H19.2004ZM15.9752 30.2749C17.7195 30.2749 19.2004 29.0352 19.2004 27.4405H18.7004C18.7004 28.6953 17.5118 29.7749 15.9752 29.7749V30.2749ZM12.75 27.4407C12.75 29.0354 14.2309 30.2749 15.9752 30.2749V29.7749C14.4386 29.7749 13.25 28.6955 13.25 27.4407H12.75ZM15.9752 24.6064C14.2309 24.6064 12.75 25.8459 12.75 27.4407H13.25C13.25 26.1858 14.4386 25.1064 15.9752 25.1064V24.6064ZM17.7748 25.0891C17.259 24.7836 16.6391 24.6064 15.9752 24.6064V25.1064C16.5502 25.1064 17.082 25.2599 17.5199 25.5193L17.7748 25.0891ZM17.3974 15.062V25.3042H17.8974V15.062H17.3974ZM18.083 14.1867C17.6802 14.2861 17.3974 14.6473 17.3974 15.062H17.8974C17.8974 14.8774 18.0233 14.7165 18.2028 14.6721L18.083 14.1867ZM27.8555 11.7762L18.0831 14.1867L18.2028 14.6721L27.9752 12.2616L27.8555 11.7762ZM15.9752 26.4094C16.385 26.4094 16.748 26.5372 17.0035 26.7324C17.259 26.9275 17.3963 27.1793 17.3974 27.4375L17.8974 27.4356C17.8956 26.9892 17.657 26.6024 17.3071 26.3351C16.9573 26.0679 16.4855 25.9094 15.9752 25.9094V26.4094ZM14.553 27.4405C14.553 27.1815 14.6899 26.9292 14.9453 26.7335C15.2009 26.5377 15.5644 26.4094 15.9752 26.4094V25.9094C15.4638 25.9094 14.9913 26.0684 14.6413 26.3366C14.2911 26.6048 14.053 26.9929 14.053 27.4405H14.553ZM15.9752 28.4717C15.5644 28.4717 15.2009 28.3435 14.9454 28.1477C14.6899 27.952 14.553 27.6995 14.553 27.4405H14.053C14.053 27.8881 14.2911 28.2763 14.6413 28.5445C14.9913 28.8127 15.4638 28.9717 15.9752 28.9717V28.4717ZM17.3974 27.4405C17.3974 27.6995 17.2604 27.952 17.005 28.1477C16.7494 28.3435 16.3859 28.4717 15.9752 28.4717V28.9717C16.4865 28.9717 16.9591 28.8127 17.3091 28.5445C17.6592 28.2763 17.8974 27.8881 17.8974 27.4405H17.3974ZM17.3974 27.4404V27.4404C17.3974 27.4404 17.3974 27.4404 17.3974 27.4404C17.3974 27.4404 17.3974 27.4404 17.3974 27.4404C17.3974 27.4404 17.3974 27.4404 17.3974 27.4404C17.3974 27.4404 17.3974 27.4404 17.3974 27.4404V27.4404V27.4404C17.3974 27.4404 17.3974 27.4404 17.3974 27.4404C17.3974 27.4404 17.3974 27.4404 17.3974 27.4404C17.3974 27.4404 17.3974 27.4404 17.3974 27.4404V27.4404V27.4404C17.3974 27.4404 17.3974 27.4404 17.3974 27.4404C17.3974 27.4404 17.3974 27.4404 17.3974 27.4404V27.4404C17.3974 27.4404 17.3974 27.4404 17.3974 27.4404C17.3974 27.4404 17.3974 27.4404 17.3974 27.4404V27.4404C17.3974 27.4404 17.3974 27.4404 17.3974 27.4404C17.3974 27.4404 17.3974 27.4404 17.3974 27.4404V27.4404C17.3974 27.4404 17.3974 27.4404 17.3974 27.4404C17.3974 27.4404 17.3974 27.4404 17.3974 27.4405V27.4405C17.3974 27.4405 17.3974 27.4405 17.3974 27.4405C17.3974 27.4405 17.3974 27.4405 17.3974 27.4405V27.4405C17.3974 27.4405 17.3974 27.4405 17.3974 27.4405C17.3974 27.4405 17.3974 27.4405 17.3974 27.4405V27.4405C17.3974 27.4405 17.3974 27.4405 17.3974 27.4405C17.3974 27.4405 17.3974 27.4405 17.3974 27.4405C17.3974 27.4405 17.3974 27.4405 17.3974 27.4405C17.3974 27.4405 17.3974 27.4405 17.3974 27.4405V27.4405V27.4405V27.4405V27.4405V27.4405V27.4405H17.8974V27.4405V27.4405V27.4405V27.4405V27.4405V27.4405C17.8974 27.4405 17.8974 27.4405 17.8974 27.4405C17.8974 27.4405 17.8974 27.4405 17.8974 27.4405C17.8974 27.4405 17.8974 27.4405 17.8974 27.4405C17.8974 27.4405 17.8974 27.4405 17.8974 27.4405V27.4405C17.8974 27.4405 17.8974 27.4405 17.8974 27.4405C17.8974 27.4405 17.8974 27.4405 17.8974 27.4405V27.4405C17.8974 27.4405 17.8974 27.4405 17.8974 27.4405C17.8974 27.4405 17.8974 27.4405 17.8974 27.4405V27.4405C17.8974 27.4404 17.8974 27.4404 17.8974 27.4404C17.8974 27.4404 17.8974 27.4404 17.8974 27.4404V27.4404C17.8974 27.4404 17.8974 27.4404 17.8974 27.4404C17.8974 27.4404 17.8974 27.4404 17.8974 27.4404V27.4404C17.8974 27.4404 17.8974 27.4404 17.8974 27.4404C17.8974 27.4404 17.8974 27.4404 17.8974 27.4404V27.4404C17.8974 27.4404 17.8974 27.4404 17.8974 27.4404C17.8974 27.4404 17.8974 27.4404 17.8974 27.4404V27.4404V27.4404C17.8974 27.4404 17.8974 27.4404 17.8974 27.4404C17.8974 27.4404 17.8974 27.4404 17.8974 27.4404C17.8974 27.4404 17.8974 27.4404 17.8974 27.4404V27.4404V27.4404C17.8974 27.4404 17.8974 27.4404 17.8974 27.4404C17.8974 27.4404 17.8974 27.4404 17.8974 27.4404C17.8974 27.4404 17.8974 27.4404 17.8974 27.4404C17.8974 27.4404 17.8974 27.4404 17.8974 27.4404V27.4404H17.3974ZM17.6474 27.6904H17.6474V27.1904H17.6474V27.6904ZM17.3974 27.4366V27.4404H17.8974V27.4366H17.3974ZM27.6698 16.4201V13.4834H27.1698V16.4201H27.6698ZM19.0102 18.7512L27.4796 16.6628L27.3599 16.1773L18.8905 18.2657L19.0102 18.7512ZM18.7003 15.5726V18.5084H19.2003V15.5726H18.7003ZM27.3599 13.2407L18.8905 15.3299L19.0102 15.8153L27.4797 13.7262L27.3599 13.2407ZM25.7476 22.2399C26.1576 22.2399 26.5205 22.3677 26.776 22.5629C27.0314 22.758 27.1688 23.0098 27.1698 23.2682L27.6698 23.2662C27.668 22.8198 27.4295 22.4329 27.0796 22.1656C26.7298 21.8983 26.258 21.7399 25.7476 21.7399V22.2399ZM24.3254 23.2711C24.3254 23.0121 24.4624 22.7596 24.7178 22.5639C24.9734 22.3681 25.3369 22.2399 25.7476 22.2399V21.7399C25.2363 21.7399 24.7637 21.8989 24.4137 22.167C24.0636 22.4353 23.8254 22.8235 23.8254 23.2711H24.3254ZM25.7476 24.3022C25.3369 24.3022 24.9734 24.1739 24.7178 23.9781C24.4624 23.7824 24.3254 23.5301 24.3254 23.2711H23.8254C23.8254 23.7186 24.0636 24.1068 24.4137 24.375C24.7637 24.6432 25.2363 24.8022 25.7476 24.8022V24.3022ZM27.1698 23.2711C27.1698 23.53 27.0329 23.7824 26.7775 23.9781C26.5219 24.1739 26.1584 24.3022 25.7476 24.3022V24.8022C26.259 24.8022 26.7315 24.6431 27.0815 24.375C27.4317 24.1068 27.6698 23.7186 27.6698 23.2711H27.1698ZM27.1698 23.2711V23.2711H27.6698V23.2711H27.1698ZM27.4198 23.5211H27.4198V23.0211H27.4198V23.5211ZM27.1698 23.2672V23.2711H27.6698V23.2672H27.1698Z" fill="url(#paint1_linear_146_152)"/>
<defs>
<linearGradient id="paint0_linear_146_152" x1="8.3857" y1="21.0125" x2="36.4532" y2="21.0125" gradientUnits="userSpaceOnUse">
<stop stop-color="#D91193"/>
<stop stop-color="#D91193"/>
<stop offset="1" stop-color="#22DDF2"/>
</linearGradient>
<linearGradient id="paint1_linear_146_152" x1="8.3857" y1="21.0125" x2="36.4532" y2="21.0125" gradientUnits="userSpaceOnUse">
<stop stop-color="#D91193"/>
<stop stop-color="#D91193"/>
<stop offset="1" stop-color="#22DDF2"/>
</linearGradient>
</defs>
</svg>
