<svg width="78" height="78" viewBox="0 0 78 78" fill="none" xmlns="http://www.w3.org/2000/svg">
<circle opacity="0.5" cx="43" cy="43" r="34.75" fill="url(#paint0_linear_41_431)" stroke="url(#paint1_linear_41_431)" stroke-width="0.5" stroke-linejoin="round"/>
<circle opacity="0.5" cx="38" cy="35" r="34.75" fill="url(#paint2_linear_41_431)" stroke="url(#paint3_linear_41_431)" stroke-width="0.5" stroke-linejoin="round"/>
<circle opacity="0.5" cx="35" cy="43" r="34.75" fill="url(#paint4_linear_41_431)" stroke="url(#paint5_linear_41_431)" stroke-width="0.5" stroke-linejoin="round"/>
<path fill-rule="evenodd" clip-rule="evenodd" d="M42.7283 45.6508C43.1798 46.1105 43.9184 46.1172 44.3781 45.6657L50.3175 39.8324C50.5409 39.613 50.6667 39.3131 50.6667 39C50.6667 38.6869 50.5409 38.387 50.3175 38.1676L44.3781 32.3343C43.9184 31.8828 43.1798 31.8895 42.7283 32.3492C42.2768 32.8089 42.2835 33.5475 42.7432 33.999L46.6472 37.8333L28.5 37.8333C27.8557 37.8333 27.3334 38.3557 27.3334 39C27.3334 39.6443 27.8557 40.1667 28.5 40.1667L46.6472 40.1667L42.7432 44.001C42.2835 44.4525 42.2768 45.1911 42.7283 45.6508Z" fill="white"/>
<defs>
<linearGradient id="paint0_linear_41_431" x1="-12.5435" y1="43" x2="112.417" y2="43" gradientUnits="userSpaceOnUse">
<stop stop-color="#D91193"/>
<stop stop-color="#D91193"/>
<stop offset="1" stop-color="#22DDF2"/>
</linearGradient>
<linearGradient id="paint1_linear_41_431" x1="-12.5435" y1="43" x2="112.417" y2="43" gradientUnits="userSpaceOnUse">
<stop stop-color="#D91193"/>
<stop stop-color="#D91193"/>
<stop offset="1" stop-color="#22DDF2"/>
</linearGradient>
<linearGradient id="paint2_linear_41_431" x1="-17.5435" y1="35" x2="107.417" y2="35" gradientUnits="userSpaceOnUse">
<stop stop-color="#D91193"/>
<stop stop-color="#D91193"/>
<stop offset="1" stop-color="#22DDF2"/>
</linearGradient>
<linearGradient id="paint3_linear_41_431" x1="-17.5435" y1="35" x2="107.417" y2="35" gradientUnits="userSpaceOnUse">
<stop stop-color="#D91193"/>
<stop stop-color="#D91193"/>
<stop offset="1" stop-color="#22DDF2"/>
</linearGradient>
<linearGradient id="paint4_linear_41_431" x1="-20.5435" y1="43" x2="104.417" y2="43" gradientUnits="userSpaceOnUse">
<stop stop-color="#D91193"/>
<stop stop-color="#D91193"/>
<stop offset="1" stop-color="#22DDF2"/>
</linearGradient>
<linearGradient id="paint5_linear_41_431" x1="-20.5435" y1="43" x2="104.417" y2="43" gradientUnits="userSpaceOnUse">
<stop stop-color="#D91193"/>
<stop stop-color="#D91193"/>
<stop offset="1" stop-color="#22DDF2"/>
</linearGradient>
</defs>
</svg>
