<svg width="18" height="18" viewBox="0 0 18 18" fill="none" xmlns="http://www.w3.org/2000/svg">
<path fill-rule="evenodd" clip-rule="evenodd" d="M0.666584 6.91663C0.666584 10.3684 3.4648 13.1666 6.91658 13.1666C8.35962 13.1666 9.68843 12.6776 10.7463 11.8562C10.7862 11.9405 10.8409 12.0195 10.9107 12.0892L15.9107 17.0892C16.2361 17.4147 16.7637 17.4147 17.0892 17.0892C17.4146 16.7638 17.4146 16.2361 17.0892 15.9107L12.0892 10.9107C12.0195 10.841 11.9405 10.7862 11.8562 10.7464C12.6775 9.68847 13.1666 8.35966 13.1666 6.91663C13.1666 3.46485 10.3684 0.666626 6.91658 0.666626C3.4648 0.666626 0.666584 3.46485 0.666584 6.91663ZM2.33325 6.91663C2.33325 4.38532 4.38528 2.33329 6.91658 2.33329C9.44789 2.33329 11.4999 4.38532 11.4999 6.91663C11.4999 9.44793 9.44789 11.5 6.91658 11.5C4.38528 11.5 2.33325 9.44793 2.33325 6.91663Z" fill="#A7A7A7"/>
</svg>
